<svg version="1.0" xmlns="http://www.w3.org/2000/svg" width="800.000000" height="800.000000" viewBox="0 0 800.000000 800.000000" preserveAspectRatio="xMidYMid meet">
  <metadata>
    <rdf:RDF xmlns:rdf="http://www.w3.org/1999/02/22-rdf-syntax-ns#" xmlns:rdfs="http://www.w3.org/2000/01/rdf-schema#" xmlns:dc="http://purl.org/dc/elements/1.1/">
      <rdf:Description dc:format="image/svg+xml" dc:Label="1" dc:ContentProducer="001191330110MACRLGPT8B00000" dc:ProduceID="413693695" dc:ReservedCode1="qKnktEPMI0k9NUs/VA/UTqvMV42PjPh4FzHgiiMwGqo=" dc:ContentPropagator="001191330110MACRLGPT8B00000" dc:PropagateID="413693695" dc:ReservedCode2="qKnktEPMI0k9NUs/VA/UTqvMV42PjPh4FzHgiiMwGqo="/>
    </rdf:RDF>
  </metadata>
  <g transform="translate(0.000000,800.000000) scale(0.100000,-0.100000)" fill="#000000" stroke="none">
    <path d="M4520 5610 c0 -5 -15 -10 -34 -10 -18 0 -73 -8 -122 -17 -77 -16 -152 -18 -564 -18 -419 0 -483 -2 -543 -17 -184 -48 -289 -154 -337 -344 -20 -75 -73 -321 -135 -624 -19 -91 -52 -250 -74 -355 -116 -553 -124 -596 -110 -610 27 -27 163 -96 268 -135 125 -47 365 -103 541 -125 176 -22 527 -30 680 -16 118 11 356 46 391 57 15 4 15 11 2 82 -8 42 -16 78 -17 79 -1 1 -42 -4 -91 -12 -359 -59 -630 -64 -985 -19 -148 19 -360 71 -485 119 -101 39 -136 60 -130 78 5 13 66 301 115 547 16 80 54 262 85 405 31 143 69 321 84 396 32 149 52 197 103 246 63 61 128 76 348 80 107 3 211 3 230 1 35 -3 35 -3 -40 -42 -118 -60 -366 -210 -419 -252 -4 -4 99 -134 106 -134 3 0 35 22 72 48 308 224 825 422 1102 422 138 0 252 -76 318 -212 45 -92 58 -158 85 -419 14 -129 39 -371 56 -539 18 -168 35 -307 38 -311 4 -3 40 -1 81 4 l74 9 -7 92 c-4 50 -29 304 -57 564 -55 524 -67 585 -147 720 -75 126 -219 234 -332 249 -22 3 -40 10 -40 14 0 5 -25 9 -55 9 -30 0 -55 -4 -55 -10z"/>
    <path d="M4344 5250 c-135 -20 -229 -73 -268 -151 -49 -100 -28 -180 78 -285 111 -109 284 -192 468 -224 34 -6 75 -13 89 -16 25 -5 26 -3 37 65 17 101 17 101 -22 101 -49 0 -211 44 -286 78 -129 58 -235 159 -217 206 4 9 28 27 54 39 40 18 69 22 168 24 l120 2 7 38 c4 21 7 56 7 79 l1 41 -67 6 c-78 8 -98 7 -169 -3z"/>
    <path d="M1782 4544 c-268 -72 -423 -447 -372 -899 41 -351 193 -697 400 -906 196 -198 463 -306 846 -341 157 -14 474 -21 474 -10 0 4 19 9 43 10 136 7 338 47 497 97 58 19 150 41 205 50 145 24 1215 253 1335 286 19 5 100 25 180 44 270 66 497 155 645 254 247 164 494 488 559 734 18 67 18 69 -3 137 -27 83 -80 138 -161 165 -108 36 -306 4 -530 -85 -331 -132 -681 -351 -1365 -855 -490 -361 -635 -455 -817 -531 -259 -108 -562 -151 -928 -134 -348 17 -568 75 -747 198 -204 141 -374 430 -444 757 -21 95 -24 137 -23 300 0 163 4 201 22 269 28 101 57 158 110 217 77 86 170 109 293 73 73 -22 236 -102 339 -168 46 -30 88 -52 92 -50 5 3 27 33 49 66 49 71 57 56 -86 145 -185 116 -390 194 -504 192 -31 0 -80 -7 -109 -15z m4576 -533 c13 -1 37 -15 54 -31 27 -28 30 -35 24 -71 -4 -23 -24 -75 -44 -117 -133 -269 -359 -498 -599 -608 -208 -95 -435 -155 -1268 -334 -104 -22 -209 -45 -232 -50 -85 -20 -104 -37 292 256 583 431 953 672 1224 801 205 98 436 169 511 157 8 -1 25 -3 38 -3z"/>
  </g>
</svg>